<?xml version="1.0" encoding="utf-8"?>
<!-- Generator: Adobe Illustrator 26.3.1, SVG Export Plug-In . SVG Version: 6.00 Build 0)  -->
<svg version="1.1" id="Capa_1" xmlns="http://www.w3.org/2000/svg" xmlns:xlink="http://www.w3.org/1999/xlink" x="0px" y="0px"
	 viewBox="0 0 292.64 71.4" style="enable-background:new 0 0 292.64 71.4;" xml:space="preserve">
<style type="text/css">
	.st0{opacity:0.17;fill:#FFFFFF;}
	.st1{fill:#C4E4E8;}
	.st2{opacity:0.55;}
	.st3{fill:#A22420;}
	.st4{fill:#085492;}
	.st5{fill:none;stroke:#1D1D1B;stroke-width:0.75;stroke-miterlimit:10;}
	.st6{fill:none;stroke:#1D1D1B;stroke-miterlimit:10;}
	.st7{fill:#CACCCC;}
	.st8{fill:#FFFFFF;}
	.st9{fill:none;stroke:#FFFFFF;stroke-width:1.434;stroke-miterlimit:10;}
	.st10{fill:none;stroke:#FFFFFF;stroke-width:0.75;stroke-miterlimit:10;}
	.st11{fill:#0B5492;}
	.st12{fill:#89BECA;}
	.st13{fill:#045582;}
	.st14{fill:#F7AF55;}
	.st15{fill:#B7221C;}
	.st16{fill:none;stroke:#000000;stroke-width:1.1376;stroke-miterlimit:10;}
	.st17{fill:#C6DBDD;}
	.st18{fill:#ECDECF;}
	.st19{fill:#99C8D0;}
	.st20{fill:#FFB152;}
	.st21{fill:#0C729A;}
	.st22{fill:none;stroke:#8ABFCB;stroke-width:2.2751;stroke-miterlimit:10;}
	.st23{fill:#085482;stroke:#085482;stroke-width:3.4127;stroke-miterlimit:10;}
	.st24{fill:#B8201B;}
	.st25{fill:#085482;}
	.st26{fill:#106624;}
	.st27{fill:#ECB97D;}
	.st28{clip-path:url(#SVGID_00000109712964860764663200000008655181183388141993_);}
	.st29{fill:#EA9B34;}
	.st30{fill:#085482;stroke:#085482;stroke-width:2;stroke-miterlimit:10;}
	.st31{fill:#98CDD9;}
	.st32{fill:none;stroke:#FFBF52;stroke-width:2;stroke-miterlimit:10;}
	.st33{fill:#591A16;}
	.st34{fill:#8ABFCB;}
	.st35{fill:#31140D;}
	.st36{fill:#FFBF52;}
</style>
<g>
	<path class="st8" d="M18.89,47.62c-0.39-0.3-0.69-0.74-0.9-1.32c-0.22-0.58-0.45-1.17-0.71-1.78c-0.35-1.25-0.95-2.26-1.81-3.03
		c-0.86-0.78-2-1.05-3.42-0.84c-0.22,0-0.24,0.09-0.06,0.26c0.56,0.47,0.94,1.16,1.13,2.07c0.19,0.9,0.19,1.81,0,2.71
		c-0.19,0.9-0.58,1.69-1.16,2.36c-0.58,0.67-1.32,1-2.23,1c-1.03,0-1.79-0.36-2.26-1.07c-0.47-0.71-0.71-1.49-0.71-2.36v-26.7
		c0-0.99,0.19-1.88,0.58-2.68c0.39-0.8,1.2-1.19,2.45-1.19c0.77,0,1.36,0.24,1.74,0.71c0.39,0.47,0.59,1.01,0.61,1.61
		c0.02,0.6-0.14,1.21-0.48,1.81c-0.35,0.6-0.88,1.03-1.61,1.29c-0.17,0.04-0.19,0.13-0.06,0.26c0.69,0.69,1.59,1.03,2.71,1.03
		c1.12,0,2.16-0.41,3.13-1.23c0.97-0.82,1.45-2.07,1.45-3.74c0-1.08-0.18-2.08-0.55-3c-0.37-0.92-0.87-1.72-1.52-2.39
		c-0.65-0.67-1.42-1.19-2.32-1.58c-0.9-0.39-1.92-0.58-3.04-0.58c-1.25,0-2.38,0.23-3.39,0.68c-1.01,0.45-1.88,1.08-2.61,1.87
		c-0.73,0.8-1.29,1.73-1.68,2.81c-0.39,1.08-0.58,2.22-0.58,3.42v23.8c0,3.1-0.52,5.1-1.55,6.01c-0.04,0.04-0.04,0.11,0,0.19
		c0.6,0.26,1.13,0.65,1.58,1.16c0.45,0.52,0.96,1.21,1.52,2.07c0.69,0.99,1.55,1.82,2.58,2.49c1.03,0.67,2.24,1,3.62,1
		c1.55,0,2.86-0.3,3.94-0.9c1.08-0.6,1.96-1.36,2.65-2.26v0.06c0.6-0.73,1.12-1.48,1.55-2.26c0.43-0.77,0.9-1.29,1.42-1.55
		C19.02,47.73,19.02,47.67,18.89,47.62z"/>
	<path class="st8" d="M38.93,47.37c0.6-0.86,1.14-1.55,1.61-2.07c0.47-0.52,1.01-0.92,1.61-1.23c0.13,0,0.15-0.04,0.06-0.13
		c-0.47-0.43-0.86-1-1.16-1.71c-0.3-0.71-0.45-1.84-0.45-3.39l0-25.29c0-0.9,0.14-1.66,0.42-2.26c0.28-0.6,0.66-1.03,1.13-1.29
		c0.13-0.09,0.19-0.16,0.19-0.23s-0.09-0.1-0.26-0.1h-8.13c-0.17,0-0.26,0.03-0.26,0.1s0.06,0.14,0.19,0.23
		c0.47,0.26,0.85,0.69,1.13,1.29c0.28,0.6,0.42,1.36,0.42,2.26l0,28.13c0,1.12-0.29,1.97-0.87,2.55c-0.58,0.58-1.24,0.87-1.97,0.87
		c-0.73,0-1.38-0.29-1.94-0.87c-0.56-0.58-0.84-1.43-0.84-2.55l0-28.13c0-0.9,0.14-1.66,0.42-2.26c0.28-0.6,0.66-1.03,1.13-1.29
		c0.13-0.09,0.19-0.16,0.19-0.23s-0.09-0.1-0.26-0.1h-8.13c-0.17,0-0.26,0.03-0.26,0.1s0.06,0.14,0.19,0.23
		c0.47,0.26,0.85,0.69,1.13,1.29c0.28,0.6,0.42,1.36,0.42,2.26l0,25.29c0,1.55-0.15,2.68-0.45,3.39c-0.3,0.71-0.69,1.28-1.16,1.71
		c-0.09,0.09-0.06,0.13,0.06,0.13c1.03,0.47,2.02,1.44,2.97,2.91c0.73,1.12,1.65,2.03,2.74,2.74c1.1,0.71,2.4,1.06,3.91,1.06
		c1.38,0,2.57-0.32,3.58-0.97C37.33,49.18,38.2,48.36,38.93,47.37z"/>
	<path class="st8" d="M47.58,47.65h8.97c0.13,0,0.2-0.03,0.23-0.1c0.02-0.06-0.03-0.14-0.16-0.23c-0.56-0.3-1.02-0.67-1.39-1.1
		c-0.37-0.43-0.46-1.12-0.29-2.07l0.19-1.1c0.13-0.77,0.42-1.41,0.87-1.9c0.45-0.49,0.98-0.89,1.58-1.19c0.6-0.3,1.27-0.52,2-0.65
		c0.73-0.13,1.42-0.17,2.07-0.13l0.71,4.91c0.13,0.95,0.01,1.67-0.35,2.16c-0.37,0.5-0.81,0.85-1.32,1.06
		c-0.13,0.09-0.18,0.16-0.16,0.23c0.02,0.06,0.1,0.1,0.23,0.1h8.98c0.13,0,0.2-0.03,0.23-0.1c0.02-0.06-0.03-0.14-0.16-0.23
		c-0.47-0.26-0.96-0.69-1.45-1.29c-0.5-0.6-0.81-1.36-0.94-2.26l-4.84-30.54c-0.09-0.65-0.08-1.26,0.03-1.84
		c0.11-0.58,0.35-1.04,0.74-1.39c0.3-0.21,0.28-0.32-0.06-0.32h-9.23c-0.35,0-0.37,0.11-0.06,0.32c0.39,0.34,0.63,0.81,0.74,1.39
		c0.11,0.58,0.12,1.19,0.03,1.84l-4.84,30.54c-0.13,0.9-0.44,1.66-0.94,2.26c-0.5,0.6-0.98,1.03-1.45,1.29
		c-0.13,0.09-0.18,0.16-0.16,0.23C47.38,47.62,47.45,47.65,47.58,47.65z M58.62,18.02h0.13l2.2,16.4c-0.73,0.09-1.52,0.23-2.36,0.42
		c-0.84,0.19-1.65,0.51-2.42,0.94L58.62,18.02z"/>
	<path class="st8" d="M137.99,16.53c0.09,0,0.17-0.04,0.26-0.13c0.34-0.47,0.84-0.85,1.49-1.13c0.65-0.28,1.42-0.42,2.32-0.42h2.07
		l-0.03,32.88c0,0.9-0.14,1.66-0.42,2.26c-0.28,0.6-0.66,1.03-1.13,1.29c-0.13,0.09-0.18,0.16-0.16,0.23c0.02,0.06,0.1,0.1,0.23,0.1
		h8.14c0.13,0,0.2-0.03,0.23-0.1c0.02-0.06-0.03-0.14-0.16-0.23c-0.47-0.26-0.85-0.69-1.13-1.29c-0.28-0.6-0.42-1.36-0.42-2.26
		l0.03-32.88h2c0.9,0,1.68,0.14,2.32,0.42c0.65,0.28,1.14,0.66,1.48,1.13c0.09,0.09,0.17,0.13,0.26,0.13c0.09,0,0.11-0.06,0.06-0.19
		l-1.1-6.65h-15.3l-1.1,6.65C137.88,16.47,137.9,16.53,137.99,16.53z"/>
	<path class="st8" d="M124.13,49.38c-0.09,0.08-0.13,0.14-0.13,0.2c0,0.06,0.09,0.09,0.26,0.09h8.13c0.13,0,0.19-0.03,0.19-0.09
		c0-0.06-0.04-0.12-0.13-0.2c-0.47-0.23-0.85-0.61-1.13-1.15c-0.28-0.54-0.42-1.21-0.42-2.02l-0.52-32.79
		c-1.42,1.07-3.14,1.5-5.03,1.57l0.38,31.23C125.74,47.82,125.2,48.88,124.13,49.38z"/>
	<path class="st8" d="M162.14,46.73c0.57,0.33,1.1,0.78,1.6,1.35c0.5,0.57,1.03,1.28,1.6,2.13c0.76,1.09,1.71,2,2.84,2.74
		c1.14,0.74,2.47,1.1,3.98,1.1c2.04,0,3.66-0.4,4.87-1.21c1.21-0.81,2.22-1.9,3.02-3.27c0.38-0.62,0.76-1.22,1.14-1.81
		c0.38-0.59,0.83-1.01,1.35-1.24c0.28-0.09,0.31-0.21,0.07-0.36c-0.33-0.24-0.62-0.57-0.85-1c-0.24-0.43-0.43-0.89-0.57-1.39
		c-0.14-0.5-0.25-0.97-0.32-1.42c-0.07-0.45-0.11-0.82-0.11-1.1v-22.2c0-1.8-0.23-3.32-0.68-4.55c-0.45-1.23-1.06-2.24-1.81-3.02
		c-0.76-0.78-1.66-1.35-2.7-1.71c-1.04-0.36-2.13-0.53-3.27-0.53c-2.56,0-4.65,0.83-6.26,2.49c-1.61,1.66-2.42,4.05-2.42,7.18v22.34
		c0,2.32-0.52,4.01-1.56,5.05C161.92,46.44,161.94,46.59,162.14,46.73z M169.32,19.9c0-2.89,0.97-4.34,2.92-4.34
		c0.95,0,1.66,0.34,2.13,1.03c0.47,0.69,0.71,1.79,0.71,3.31v23.98c0,1-0.24,1.9-0.71,2.7c-0.47,0.81-1.19,1.21-2.13,1.21
		c-1,0-1.73-0.39-2.2-1.17c-0.47-0.78-0.71-1.65-0.71-2.6V19.9z"/>
	<path class="st8" d="M201.15,49.67h8.97c0.13,0,0.2-0.03,0.23-0.1c0.02-0.06-0.03-0.14-0.16-0.23c-0.56-0.3-1.02-0.67-1.39-1.1
		c-0.37-0.43-0.46-1.12-0.29-2.07l0.19-1.1c0.13-0.77,0.64-3.08,1.49-3.92c0.48-0.47,0.98-0.89,1.58-1.19c0.6-0.3,1.27-0.52,2-0.65
		c0.73-0.13,1.42-0.17,2.07-0.13l0.14,1.49c1.48-1.14,3.03-2.09,4.83-2.37l-4.07-25.07c-0.09-0.65-0.08-1.26,0.03-1.84
		c0.11-0.58,0.35-1.04,0.74-1.39c0.3-0.21,0.28-0.32-0.06-0.32h-9.23c-0.35,0-0.37,0.11-0.06,0.32c0.39,0.34,0.63,0.81,0.74,1.39
		c0.11,0.58,0.12,1.19,0.03,1.84l-5.46,32.56c-0.13,0.9-0.44,1.66-0.94,2.26c-0.5,0.6-0.98,1.03-1.45,1.29
		c-0.13,0.09-0.18,0.16-0.16,0.23C200.94,49.64,201.02,49.67,201.15,49.67z M212.8,18.02h0.13l2.2,16.4
		c-0.73,0.09-1.52,0.23-2.36,0.42c-0.84,0.19-1.65,0.51-2.42,0.94L212.8,18.02z"/>
	<path class="st8" d="M271.95,9.69h-8.13c-0.17,0-0.26,0.03-0.26,0.1s0.06,0.14,0.19,0.23c0.47,0.26,0.85,0.69,1.13,1.29
		c0.28,0.6,0.42,1.36,0.42,2.26v25.63c0,1.12-0.29,1.97-0.87,2.55c-0.58,0.58-1.24,0.87-1.97,0.87c-0.73,0-1.38-0.29-1.94-0.87
		c-0.56-0.58-0.84-1.43-0.84-2.55V13.56c0-0.9,0.14-1.66,0.42-2.26c0.28-0.6,0.66-1.03,1.13-1.29c0.13-0.09,0.19-0.16,0.19-0.23
		s-0.09-0.1-0.26-0.1h-8.13c-0.17,0-0.26,0.03-0.26,0.1s0.06,0.14,0.19,0.23c0.47,0.26,0.85,0.69,1.13,1.29
		c0.28,0.6,0.42,1.36,0.42,2.26v22.79c0,1.55-0.15,2.68-0.45,3.39c-0.3,0.71-0.69,1.28-1.16,1.71c-0.09,0.09-0.06,0.13,0.06,0.13
		c1.03,0.47,2.02,1.44,2.97,2.91c0.73,1.12,1.65,2.03,2.74,2.74c1.1,0.71,2.4,1.06,3.91,1.06c1.38,0,2.57-0.32,3.58-0.97
		c1.01-0.65,1.88-1.46,2.61-2.45c0.6-0.86,1.14-1.55,1.61-2.07c0.47-0.52,1.01-0.92,1.61-1.23c0.13,0,0.15-0.04,0.06-0.13
		c-0.47-0.43-0.86-1-1.16-1.71c-0.3-0.71-0.45-1.84-0.45-3.39V13.56c0-0.9,0.14-1.66,0.42-2.26c0.28-0.6,0.66-1.03,1.13-1.29
		c0.13-0.09,0.19-0.16,0.19-0.23S272.12,9.69,271.95,9.69z"/>
	<path class="st8" d="M292.55,44.23c-0.09,0-0.17,0.04-0.26,0.13c-0.34,0.47-0.84,0.85-1.48,1.13c-0.65,0.28-1.42,0.42-2.32,0.42
		h-3.62V13.56c0-0.9,0.14-1.66,0.42-2.26c0.28-0.6,0.66-1.03,1.13-1.29c0.13-0.09,0.18-0.16,0.16-0.23c-0.02-0.06-0.1-0.1-0.23-0.1
		h-8.13c-0.13,0-0.21,0.03-0.23,0.1s0.03,0.14,0.16,0.23c0.47,0.26,0.85,0.69,1.13,1.29c0.28,0.6,0.42,1.36,0.42,2.26V47.2
		c0,0.9-0.14,1.66-0.42,2.26c-0.28,0.6-0.66,1.03-1.13,1.29c-0.13,0.09-0.18,0.16-0.16,0.23c0.02,0.06,0.1,0.1,0.23,0.1h13.3
		l1.1-6.65C292.66,44.29,292.64,44.23,292.55,44.23z"/>
	<path class="st8" d="M92.63,12.2c1.12,0.45,2.32,0.72,3.62,0.81c1.29,0.09,2.52,0.06,3.68-0.06c1.51-0.17,2.95-0.52,4.33-1.03
		c1.38-0.52,2.73-1.14,4.07-1.87c-0.43,0.82-0.65,1.7-0.65,2.65l0.11,12.61v19.13c0,0.9-0.14,1.66-0.42,2.26
		c-0.28,0.6-0.66,1.03-1.13,1.29c-0.13,0.09-0.18,0.16-0.16,0.23c0.02,0.06,0.1,0.1,0.23,0.1h8.14c0.13,0,0.2-0.03,0.23-0.1
		c0.02-0.06-0.03-0.14-0.16-0.23c-0.47-0.26-0.85-0.69-1.13-1.29c-0.28-0.6-0.42-1.36-0.42-2.26V25.29l0.08-17.84
		c0.99-0.6,1.98-1.16,2.97-1.68c0.99-0.52,1.98-0.95,2.97-1.29c1.51-0.6,2.94-1.02,4.29-1.26c1.36-0.24,2.64-0.18,3.84,0.16
		c1.08,0.35,1.94,0.86,2.58,1.55c0.65,0.69,1.02,1.42,1.13,2.19c0.11,0.78-0.05,1.56-0.48,2.36c-0.43,0.8-1.2,1.45-2.32,1.97
		c-3.96,1.12-7.06,0.11-9.3-3.03l-0.9,0.77c1.55,3.14,4.56,4.48,9.04,4c1.42-0.3,2.6-0.8,3.55-1.48c0.95-0.69,1.6-1.51,1.97-2.45
		c0.37-0.95,0.42-1.97,0.16-3.07c-0.26-1.1-0.86-2.21-1.81-3.33c-1.12-1.29-2.59-2.14-4.42-2.55c-1.83-0.41-3.95-0.42-6.36-0.03
		c-1.38,0.26-3.01,0.81-4.91,1.65c-1.89,0.84-3.88,1.75-5.97,2.74c-2.09,0.99-4.19,1.95-6.3,2.87c-2.11,0.93-4.08,1.57-5.91,1.94
		c-1.83,0.37-3.44,0.35-4.84-0.06c-1.4-0.41-2.44-1.43-3.13-3.07l-0.84,0.58c0.26,1.33,0.81,2.43,1.65,3.29
		C90.54,11.09,91.52,11.74,92.63,12.2z"/>
	<path class="st8" d="M266.46,51.24c-1.81,0.53-3.89,0.56-6.26,0.08c-2.37-0.47-4.91-1.31-7.64-2.5c-2.73-1.2-5.44-2.43-8.14-3.71
		c-2.7-1.28-5.27-2.46-7.72-3.55c-0.01-0.01-0.02-0.01-0.03-0.01l8.34-27.08V9.69h-13.24l-1.1,6.65c-0.04,0.13-0.02,0.19,0.06,0.19
		s0.17-0.04,0.26-0.13c0.34-0.47,0.84-0.85,1.49-1.13c0.65-0.28,1.42-0.42,2.32-0.42h4.91l-7.71,24.97
		c-0.58-0.16-1.13-0.29-1.65-0.39c-3.12-0.5-5.86-0.49-8.22,0.04c-2.37,0.53-4.27,1.63-5.72,3.3c-1.22,1.45-2,2.88-2.34,4.3
		c-0.33,1.42-0.26,2.74,0.21,3.96c0.04,0.09,0.08,0.18,0.12,0.27c-12.44,4.25-25.71,5.22-37.05,5.61
		c-16.15,0.55-32.49-0.02-48.56-1.69c-5.7-0.59-11.49-1.34-17.08-2.06c-4.76-0.61-9.6-1.24-14.47-1.78c0.27-0.23,0.5-0.52,0.68-0.88
		c0.04-0.13-0.02-0.17-0.19-0.13c-1.08,0.34-1.96,0.03-2.65-0.94c-0.69-0.97-1.33-2.85-1.94-5.65c-0.39-1.76-0.72-3.5-1-5.2
		c-0.28-1.7-0.59-3.28-0.94-4.75c-0.34-1.46-0.75-2.75-1.23-3.87c-0.47-1.12-1.08-1.98-1.81-2.58v-0.13
		c1.46-0.65,2.65-1.73,3.55-3.26c0.9-1.53,1.36-3.33,1.36-5.39c0-1.59-0.29-2.95-0.87-4.07c-0.58-1.12-1.36-2.03-2.32-2.74
		c-0.97-0.71-2.11-1.24-3.42-1.58c-1.31-0.34-2.68-0.52-4.1-0.52h-6.52c-0.17,0-0.26,0.03-0.26,0.1s0.06,0.14,0.19,0.23
		c0.47,0.26,0.85,0.69,1.13,1.29c0.28,0.6,0.42,1.36,0.42,2.26v30.22c0,0.9-0.14,1.66-0.42,2.26c-0.28,0.6-0.66,1.03-1.13,1.29
		c-0.13,0.09-0.19,0.16-0.19,0.23c0,0.06,0.09,0.1,0.26,0.1H84c0.13,0,0.19-0.03,0.19-0.1c0-0.06-0.04-0.14-0.13-0.23
		c-1.03-0.56-1.55-1.74-1.55-3.55V28.41c0.65,0.04,1.23,0.39,1.74,1.03c0.52,0.65,0.97,1.48,1.36,2.49
		c0.39,1.01,0.73,2.13,1.03,3.36c0.3,1.23,0.54,2.41,0.71,3.55c0.17,1.14,0.3,2.18,0.39,3.13c0.09,0.95,0.13,1.64,0.13,2.07
		c0,0.43-0.02,1-0.06,1.71c-0.04,0.71-0.24,1.28-0.58,1.71c-0.13,0.13-0.09,0.19,0.13,0.19c0.95,0,1.74,0.24,2.39,0.71
		c0.65,0.47,1.24,0.98,1.77,1.52c0.35,0.35,0.7,0.68,1.04,1.01c-3.66-0.36-7.33-0.65-10.98-0.85c-18.56-0.97-33.88,1-46.83,6.04
		l0.09,0.22c12.92-5.03,28.2-7,46.73-6.02c3.75,0.2,7.52,0.5,11.28,0.87c0.09,0.08,0.17,0.17,0.26,0.24
		c0.52,0.47,1.12,0.71,1.81,0.71c0.6,0,1.18-0.12,1.74-0.36c0.11-0.05,0.22-0.1,0.32-0.17c4.96,0.55,9.88,1.18,14.73,1.81
		c5.6,0.72,11.38,1.47,17.09,2.06c12.13,1.26,24.4,1.9,36.63,1.9c3.99,0,7.98-0.07,11.96-0.2c11.36-0.39,24.66-1.36,37.13-5.63
		l-0.03-0.1c0.49,1.06,1.28,1.99,2.38,2.78c1.22,0.89,2.75,1.53,4.59,1.92c5.79,0.61,9.68-1.11,11.68-5.17l-1.17-1
		c-2.89,4.06-6.9,5.37-12.02,3.92c-1.45-0.67-2.45-1.51-3-2.54c-0.56-1.03-0.77-2.04-0.63-3.05c0.14-1,0.63-1.95,1.46-2.84
		c0.84-0.89,1.95-1.56,3.34-2c1.56-0.44,3.21-0.51,4.97-0.21c1.75,0.31,3.6,0.85,5.55,1.63c1.28,0.45,2.56,1,3.84,1.67
		c1.28,0.67,2.56,1.39,3.84,2.17l6.09,3.34c1.72,0.95,3.48,1.75,5.26,2.42c1.78,0.67,3.64,1.11,5.59,1.34
		c1.5,0.17,3.09,0.2,4.76,0.08c1.67-0.11,3.23-0.46,4.67-1.04c1.45-0.58,2.71-1.43,3.8-2.54c1.08-1.11,1.79-2.53,2.13-4.26
		l-1.08-0.75C269.62,49.39,268.27,50.71,266.46,51.24z M86.58,22.34c-1.03,0.6-2.39,0.9-4.07,0.9v-8.39
		c1.64-0.09,2.98,0.14,4.04,0.68c1.05,0.54,1.58,1.58,1.58,3.13C88.13,20.51,87.61,21.74,86.58,22.34z"/>
	<path class="st8" d="M177.37,70.96c-16.15,0.55-32.49-0.02-48.56-1.69c-5.7-0.59-11.49-1.34-17.08-2.06
		c-9.86-1.27-20.06-2.59-30.16-3.12c-18.56-0.97-33.88,1-46.83,6.04l0.09,0.22c12.92-5.03,28.2-7,46.73-6.02
		c10.09,0.53,20.28,1.84,30.14,3.11c5.6,0.72,11.38,1.47,17.09,2.06c12.13,1.26,24.4,1.9,36.63,1.9c3.99,0,7.98-0.07,11.96-0.2
		c11.36-0.39,24.66-1.36,37.13-5.63l-0.08-0.23C201.99,69.6,188.71,70.57,177.37,70.96z"/>
	<path class="st8" d="M39.62,59.95c-0.21-0.62-0.57-1.04-1.1-1.24c-0.53-0.2-1.17-0.18-1.94,0.07l-2.41,0.8l2.14,6.47l1.33-0.44
		l-0.78-2.37l1.06-0.35l2,1.97l1.43-0.47l-0.02-0.06l-2.28-2.18c0.33-0.3,0.54-0.63,0.63-0.99C39.79,60.8,39.76,60.4,39.62,59.95z
		 M38.28,61.3c-0.13,0.23-0.36,0.4-0.69,0.51l-1.08,0.36l-0.64-1.94l1.07-0.35c0.36-0.12,0.65-0.12,0.89,0
		c0.23,0.12,0.4,0.33,0.5,0.63C38.42,60.8,38.41,61.07,38.28,61.3z"/>
	<polygon class="st8" points="47.73,55.83 43.28,56.84 44.78,63.49 49.24,62.48 48.99,61.38 45.9,62.08 45.5,60.29 48.13,59.7 
		47.89,58.63 45.26,59.22 44.9,57.64 47.98,56.94 	"/>
	<path class="st8" d="M54.34,55.79c0.35-0.05,0.64,0,0.86,0.14c0.22,0.14,0.35,0.37,0.39,0.68l1.39-0.19
		c-0.06-0.41-0.21-0.75-0.46-1.04c-0.25-0.29-0.58-0.5-0.98-0.62c-0.4-0.12-0.84-0.15-1.33-0.08c-0.48,0.07-0.9,0.21-1.26,0.42
		c-0.36,0.21-0.63,0.48-0.79,0.79c-0.17,0.31-0.22,0.65-0.17,1.02c0.1,0.7,0.56,1.21,1.38,1.51c0.3,0.11,0.71,0.21,1.21,0.3
		c0.5,0.09,0.86,0.19,1.06,0.31c0.21,0.11,0.33,0.3,0.36,0.57c0.03,0.24-0.03,0.44-0.2,0.6c-0.17,0.16-0.42,0.26-0.75,0.31
		c-0.89,0.12-1.39-0.19-1.49-0.93l-1.4,0.19c0.06,0.44,0.23,0.8,0.5,1.1c0.27,0.3,0.63,0.52,1.09,0.65
		c0.45,0.13,0.94,0.16,1.46,0.09c0.75-0.1,1.32-0.35,1.72-0.75c0.4-0.39,0.55-0.88,0.47-1.47c-0.07-0.53-0.31-0.94-0.73-1.24
		c-0.41-0.3-1.03-0.52-1.85-0.65c-0.45-0.07-0.79-0.16-1.03-0.28c-0.24-0.12-0.38-0.29-0.41-0.51c-0.03-0.23,0.04-0.44,0.2-0.61
		C53.75,55.94,54,55.83,54.34,55.79z"/>
	<polygon class="st8" points="65.99,53.69 60.45,54.05 60.52,55.18 62.58,55.05 62.94,60.72 64.34,60.63 63.98,54.96 66.06,54.83 	
		"/>
	<path class="st8" d="M73.28,58.99l0.48,1.4l1.49-0.01l-2.58-6.81l-1.3,0l-2.51,6.83l1.49-0.01L70.82,59L73.28,58.99z M72.04,55.31
		l0.87,2.55l-1.7,0.01L72.04,55.31z"/>
	<path class="st8" d="M78.88,53.68l-0.23,4.54c-0.03,0.74,0.18,1.33,0.63,1.77c0.45,0.44,1.07,0.69,1.86,0.73
		c0.81,0.04,1.46-0.14,1.94-0.55c0.49-0.41,0.75-0.99,0.79-1.73l0.22-4.49l-1.41-0.07l-0.23,4.53c-0.05,0.83-0.48,1.22-1.26,1.18
		c-0.38-0.02-0.67-0.14-0.87-0.35c-0.2-0.21-0.29-0.55-0.27-0.99l0.22-4.49L78.88,53.68z"/>
	<path class="st8" d="M92.76,57.89c0.23-0.29,0.36-0.67,0.4-1.13c0.06-0.65-0.11-1.18-0.52-1.57c-0.4-0.4-1.01-0.63-1.81-0.7
		l-2.52-0.23l-0.61,6.79l1.4,0.13l0.22-2.49l1.12,0.1l1.05,2.6l1.5,0.13L93,61.45l-1.22-2.91C92.21,58.4,92.53,58.18,92.76,57.89z
		 M91.76,56.74c-0.03,0.31-0.15,0.55-0.36,0.71c-0.21,0.16-0.49,0.23-0.84,0.2l-1.13-0.1l0.18-2.04l1.12,0.1
		c0.38,0.03,0.65,0.15,0.81,0.35C91.72,56.16,91.78,56.42,91.76,56.74z"/>
	<path class="st8" d="M100.6,60.95l0.31,1.45l1.48,0.17l-1.75-7.07l-1.29-0.15l-3.3,6.48l1.48,0.17l0.63-1.34L100.6,60.95z
		 M99.8,57.14l0.56,2.63l-1.69-0.2L99.8,57.14z"/>
	<polygon class="st8" points="109.97,63.53 111.36,63.71 112.23,56.95 110.84,56.77 110.27,61.23 108.12,56.42 106.73,56.24 
		105.86,63.01 107.26,63.19 107.83,58.74 	"/>
	<polygon class="st8" points="118.32,64.6 119.03,58.97 121.11,59.23 121.25,58.1 115.74,57.4 115.6,58.53 117.64,58.79 
		116.93,64.43 	"/>
	<polygon class="st8" points="129.17,60.15 129.29,59.02 124.76,58.52 124,65.29 128.55,65.8 128.67,64.68 125.52,64.33 
		125.73,62.51 128.41,62.81 128.53,61.72 125.85,61.42 126.03,59.8 	"/>
	<path class="st8" d="M141.37,65.5l0.37,1.44l1.49,0.11l-2.06-6.98l-1.3-0.09l-3.02,6.62l1.49,0.11l0.57-1.37L141.37,65.5z
		 M140.4,61.73l0.67,2.61l-1.7-0.12L140.4,61.73z"/>
	<path class="st8" d="M151.61,63.86c0.22-0.3,0.33-0.68,0.35-1.15c0.03-0.65-0.16-1.17-0.59-1.55c-0.42-0.38-1.03-0.59-1.84-0.62
		l-2.53-0.12l-0.31,6.81l1.4,0.06l0.11-2.49l1.12,0.05l1.16,2.55l1.51,0.07l0-0.07l-1.35-2.85
		C151.07,64.4,151.39,64.16,151.61,63.86z M150.23,63.49c-0.2,0.17-0.48,0.25-0.83,0.23l-1.13-0.05l0.09-2.04l1.13,0.05
		c0.38,0.02,0.65,0.12,0.83,0.31c0.17,0.19,0.25,0.45,0.24,0.77C150.54,63.08,150.43,63.32,150.23,63.49z"/>
	<path class="st8" d="M157.37,62.39c0.26-0.35,0.62-0.53,1.1-0.52c0.37,0.01,0.67,0.1,0.88,0.29c0.21,0.19,0.34,0.47,0.4,0.87
		l1.37,0.03c-0.07-0.74-0.33-1.3-0.78-1.7c-0.45-0.39-1.08-0.6-1.89-0.62c-0.58-0.01-1.09,0.11-1.53,0.37
		c-0.44,0.26-0.78,0.63-1.02,1.12c-0.24,0.49-0.37,1.08-0.38,1.76l-0.01,0.46c-0.01,0.66,0.11,1.24,0.34,1.73
		c0.23,0.49,0.57,0.88,1.01,1.14c0.44,0.27,0.95,0.41,1.54,0.42c0.56,0.01,1.08-0.06,1.54-0.22c0.47-0.16,0.83-0.39,1.09-0.68
		l0.05-2.72l-2.68-0.05l-0.02,1.03l1.28,0.03l-0.02,1.18c-0.23,0.22-0.61,0.32-1.14,0.31c-0.52-0.01-0.92-0.2-1.18-0.57
		c-0.26-0.37-0.39-0.91-0.37-1.63l0.01-0.44C156.98,63.27,157.11,62.74,157.37,62.39z"/>
	<polygon class="st8" points="169.53,60.88 164.97,60.91 165.01,67.72 169.58,67.7 169.57,66.57 166.41,66.59 166.4,64.76 
		169.09,64.75 169.09,63.65 166.39,63.66 166.38,62.04 169.54,62.02 	"/>
	<polygon class="st8" points="173.02,60.83 173.22,67.64 174.63,67.6 174.49,63.12 177.36,67.52 178.77,67.48 178.56,60.66 
		177.16,60.7 177.3,65.2 174.42,60.79 	"/>
	<polygon class="st8" points="187.36,60.17 181.82,60.52 181.89,61.66 183.95,61.53 184.31,67.19 185.71,67.1 185.35,61.44 
		187.44,61.3 	"/>
	
		<rect x="191.28" y="59.73" transform="matrix(0.9943 -0.1063 0.1063 0.9943 -5.6244 20.7656)" class="st8" width="1.4" height="6.82"/>
	<polygon class="st8" points="196.33,59.2 197.47,65.92 198.86,65.68 198.1,61.26 201.55,65.22 202.94,64.99 201.79,58.27 
		200.41,58.5 201.17,62.93 197.71,58.96 	"/>
	<path class="st8" d="M207.14,62.54c0.37,0.42,0.8,0.7,1.3,0.84c0.5,0.14,1.02,0.14,1.57-0.01c0.55-0.15,1-0.42,1.35-0.8
		c0.35-0.38,0.57-0.85,0.67-1.4c0.09-0.55,0.05-1.15-0.13-1.8l-0.08-0.29c-0.18-0.64-0.45-1.18-0.82-1.61
		c-0.37-0.43-0.8-0.71-1.3-0.86c-0.5-0.14-1.02-0.14-1.57,0.01c-0.55,0.15-1,0.42-1.35,0.8c-0.35,0.38-0.58,0.85-0.67,1.41
		c-0.1,0.56-0.05,1.16,0.13,1.8l0.09,0.32C206.5,61.6,206.77,62.12,207.14,62.54z M207.53,58.57c0.15-0.42,0.45-0.7,0.9-0.82
		c0.46-0.13,0.86-0.05,1.21,0.24c0.35,0.29,0.62,0.78,0.81,1.47l0.09,0.32c0.19,0.68,0.21,1.24,0.06,1.66
		c-0.14,0.42-0.44,0.7-0.9,0.83c-0.46,0.13-0.87,0.04-1.22-0.26c-0.35-0.3-0.62-0.79-0.8-1.46l-0.09-0.32
		C207.4,59.54,207.38,58.99,207.53,58.57z"/>
	<path class="st8" d="M30,64.51c-1.35,0.46-2.78-0.3-4.19-0.52s-3.3,0.8-2.83,2.14c0.38,1.1,1.93,1.16,3.04,0.79
		c1.39-0.46,2.66-1.26,3.67-2.3L30,64.51z"/>
	<path class="st8" d="M29.67,61.98c-0.15-0.19-0.24-0.42-0.32-0.65c-0.14-0.38-0.31-0.77-0.63-1.01c-0.32-0.25-0.84-0.28-1.09,0.04
		c-0.09,0.11-0.13,0.25-0.15,0.39c-0.09,0.69,0.44,1.35,1.09,1.62c0.49,0.21,1.33,0.41,1.78,0.11
		C30.11,62.36,29.83,62.19,29.67,61.98z"/>
	<path class="st8" d="M30.34,66.05c-0.54-0.08-1.21,0.47-1.56,0.87c-0.46,0.53-0.67,1.35-0.29,1.93c0.08,0.12,0.18,0.23,0.31,0.29
		c0.36,0.18,0.82-0.07,1-0.43c0.18-0.36,0.17-0.78,0.13-1.19c-0.02-0.24-0.04-0.49,0.01-0.73C30.01,66.54,30.19,66.26,30.34,66.05z"
		/>
	<path class="st8" d="M220.57,58.13c-1.39,0.46-2.66,1.26-3.67,2.3l-0.3,0.11c1.35-0.46,2.78,0.3,4.19,0.52s3.3-0.8,2.83-2.14
		C223.22,57.83,221.67,57.77,220.57,58.13z"/>
	<path class="st8" d="M218.04,62.69c-0.49-0.21-1.33-0.41-1.78-0.11c0.22,0.12,0.5,0.29,0.67,0.5c0.15,0.19,0.24,0.42,0.32,0.65
		c0.14,0.38,0.31,0.77,0.63,1.01c0.32,0.25,0.84,0.28,1.09-0.04c0.09-0.11,0.13-0.25,0.15-0.39
		C219.22,63.62,218.68,62.97,218.04,62.69z"/>
	<path class="st8" d="M216.26,59.01c0.54,0.08,1.21-0.47,1.56-0.87c0.46-0.53,0.67-1.35,0.29-1.93c-0.08-0.12-0.18-0.23-0.31-0.29
		c-0.36-0.18-0.82,0.07-1,0.43c-0.18,0.36-0.17,0.78-0.13,1.19c0.02,0.24,0.04,0.49-0.01,0.73
		C216.59,58.53,216.41,58.8,216.26,59.01z"/>
</g>
</svg>
